<svg width="32" height="32" viewBox="0 0 32 32" xmlns="http://www.w3.org/2000/svg">
  <!-- Map pin shape matching the exact logo -->
  <path d="M16 2C10.477 2 6 6.477 6 12c0 3 2 6 4 9 2 3 4 5.5 5.5 7.5l0.5 0.5c0 0.5 0.5 0.5 0.5 0.5s0.5 0 0.5-0.5l0.5-0.5C18.5 26 20.5 23.5 22.5 20.5 24.5 17.5 26.5 14.5 26 12c0-5.523-4.477-10-10-10z" fill="#2d3748"/>
  
  <!-- TWV letters recreating the exact logo style -->
  <g fill="white">
    <!-- T -->
    <rect x="7" y="8.5" width="6" height="1.5"/>
    <rect x="9.25" y="8.5" width="1.5" height="6"/>
    
    <!-- W -->
    <polygon points="14,8.5 14,14.5 15.2,14.5 15.8,11.5 16.2,14.5 16.8,14.5 17.2,11.5 17.8,14.5 19,14.5 19,8.5 17.8,8.5 17.2,12 16.8,8.5 16.2,8.5 15.8,12 15.2,8.5"/>
    
    <!-- V -->
    <polygon points="20,8.5 20,9 22.5,14.5 23.5,14.5 26,9 26,8.5 24.5,8.5 23.5,12.5 22.5,8.5"/>
  </g>
</svg>