<?xml version="1.0" encoding="UTF-8" standalone="no"?>
<svg width="240" height="120" viewBox="0 0 240 120" fill="none" xmlns="http://www.w3.org/2000/svg">
  <style>
    .title { 
      font-family: 'Georgia', serif; 
      font-weight: bold;
      font-size: 36px;
      fill: #134C4C;
    }
    .subtitle { 
      font-family: 'Arial', sans-serif;
      font-weight: 600;
      font-size: 14px;
      fill: #C46B39;
      letter-spacing: 0.5px;
    }
  </style>
  
  <!-- Globe -->
  <circle cx="60" cy="60" r="35" fill="#4D9689" stroke="#134C4C" stroke-width="2"/>
  <path d="M45 40 C50 50, 60 55, 75 55 C80 57, 80 65, 75 67 C65 70, 55 68, 50 78" stroke="#134C4C" stroke-width="1.5" fill="none" />
  <path d="M40 48 C50 55, 55 65, 50 75 C45 80, 40 80, 35 75" stroke="#134C4C" stroke-width="1.5" fill="none" />
  
  <!-- Airplane -->
  <path d="M60 42 L72 34 L76 38 L65 52 L80 72 L72 76 L55 56 L40 64 L36 60 L50 45 Z" fill="#FFFFFF" stroke="#134C4C" stroke-width="1"/>
  
  <!-- Stars -->
  <path d="M100 20 L105 30 L115 35 L105 40 L100 50 L95 40 L85 35 L95 30 Z" fill="#D6A84B"/>
  <circle cx="25" cy="85" r="4" fill="#D6A84B"/>
  <circle cx="110" cy="80" r="3" fill="#D6A84B"/>
  
  <!-- Camera -->
  <rect x="30" y="95" width="25" height="18" rx="2" fill="#C46B39" stroke="#134C4C" stroke-width="1"/>
  <rect x="40" y="91" width="5" height="4" fill="#C46B39" stroke="#134C4C" stroke-width="1"/>
  <circle cx="42.5" cy="104" r="6" fill="#2C2C2C" stroke="#134C4C" stroke-width="1"/>
  <circle cx="42.5" cy="104" r="3" fill="#134C4C"/>
  
  <!-- Suitcase -->
  <rect x="75" y="90" width="25" height="20" rx="2" fill="#C46B39" stroke="#134C4C" stroke-width="1"/>
  <rect x="80" y="86" width="15" height="4" rx="1" fill="#C46B39" stroke="#134C4C" stroke-width="1"/>
  <line x1="82" y1="90" x2="82" y2="110" stroke="#884D2A" stroke-width="1"/>
  <line x1="93" y1="90" x2="93" y2="110" stroke="#884D2A" stroke-width="1"/>
  
  <!-- Text -->
  <text x="130" y="60" class="title">Travel</text>
  <text x="130" y="90" class="title">Concierge</text>
  <text x="130" y="110" class="subtitle">AI-POWERED JOURNEY PLANNER</text>
</svg>